<svg id="svg-comp" width="100%" height="100%" viewBox="0 0 500 500" fill="none" preserveAspectRatio="none" xmlns="http://www.w3.org/2000/svg" class="transition" style="border-radius: 0%; transform: scale(1) rotate(0deg);"><defs><mask id="globeOuterOnly"><path fill-rule="evenodd" clip-rule="evenodd" d="M218.951 76.9657C238.23 66.1209 261.771 66.1209 281.05 76.9657L386.605 136.341C406.547 147.558 418.889 168.66 418.889 191.54V307.46C418.889 330.34 406.547 351.442 386.605 362.659L281.05 422.034C261.771 432.879 238.23 432.879 218.951 422.034L113.396 362.659C93.4535 351.442 81.1123 330.34 81.1123 307.46V191.54C81.1123 168.66 93.4535 147.558 113.396 136.341L218.951 76.9657ZM250 154.5C216.082 154.5 204.279 109.44 233.841 92.8115C243.875 87.1675 256.126 87.1675 266.16 92.8115C295.722 109.44 283.919 154.5 250 154.5ZM165.809 295.01C148.263 264.929 102.223 277.376 102.223 312.2C102.223 324.526 108.871 335.893 119.614 341.935C149.93 358.988 183.336 325.055 165.809 295.01ZM334.191 295.01C316.665 325.055 350.071 358.988 380.387 341.935C391.13 335.893 397.778 324.526 397.778 312.2C397.778 277.376 351.738 264.929 334.191 295.01ZM304.706 303.658C280.267 345.553 219.733 345.553 195.294 303.658L176.16 270.856C151.531 228.634 181.986 175.611 230.866 175.611H269.135C318.015 175.611 348.47 228.634 323.841 270.856L304.706 303.658Z" fill="hsl(0, 0%, 0%)" stroke="hsl(0, 0%, 0%)" stroke-width="20"></path></mask></defs><path fill-rule="evenodd" clip-rule="evenodd" d="M218.951 76.9657C238.23 66.1209 261.771 66.1209 281.05 76.9657L386.605 136.341C406.547 147.558 418.889 168.66 418.889 191.54V307.46C418.889 330.34 406.547 351.442 386.605 362.659L281.05 422.034C261.771 432.879 238.23 432.879 218.951 422.034L113.396 362.659C93.4535 351.442 81.1123 330.34 81.1123 307.46V191.54C81.1123 168.66 93.4535 147.558 113.396 136.341L218.951 76.9657ZM250 154.5C216.082 154.5 204.279 109.44 233.841 92.8115C243.875 87.1675 256.126 87.1675 266.16 92.8115C295.722 109.44 283.919 154.5 250 154.5ZM165.809 295.01C148.263 264.929 102.223 277.376 102.223 312.2C102.223 324.526 108.871 335.893 119.614 341.935C149.93 358.988 183.336 325.055 165.809 295.01ZM334.191 295.01C316.665 325.055 350.071 358.988 380.387 341.935C391.13 335.893 397.778 324.526 397.778 312.2C397.778 277.376 351.738 264.929 334.191 295.01ZM304.706 303.658C280.267 345.553 219.733 345.553 195.294 303.658L176.16 270.856C151.531 228.634 181.986 175.611 230.866 175.611H269.135C318.015 175.611 348.47 228.634 323.841 270.856L304.706 303.658Z" fill="hsl(0, 0%, 0%)" stroke="hsl(0, 0%, 0%)" stroke-width="20"></path></svg>